<svg xmlns="http://www.w3.org/2000/svg" viewBox="0 0 200 200">
  <polygon points="100,8 192,100 100,192 8,100" fill="white" stroke="#C8102E" stroke-width="5"/>
  <circle cx="100" cy="100" r="12" fill="#000000"/>
  <path d="M100,88 Q85,75 75,75 Q60,75 55,88 Q52,95 58,102 Q65,95 75,95 Q82,95 88,100" fill="#000000"/>
  <circle cx="75" cy="75" r="8" fill="white"/>
  <path d="M112,100 Q118,95 125,95 Q135,95 142,102 Q148,95 145,88 Q140,75 125,75 Q115,75 100,88" fill="#000000"/>
  <circle cx="125" cy="75" r="8" fill="white"/>
  <path d="M100,112 Q100,125 95,135 Q90,145 100,152 Q105,148 105,140 Q105,130 100,120 Q95,130 95,140 Q95,148 100,152 Q110,145 105,135 Q100,125 100,112" fill="#000000"/>
  <circle cx="100" cy="145" r="8" fill="white"/>
  <path d="M88,100 Q82,105 75,105 Q68,105 62,102 M112,100 Q118,105 125,105 Q132,105 138,102 M100,112 Q95,118 95,125 Q95,132 100,138" fill="none" stroke="#000000" stroke-width="3"/>
</svg>
