<svg xmlns="http://www.w3.org/2000/svg" viewBox="0 0 200 200">
  <polygon points="100,8 192,100 100,192 8,100" fill="white" stroke="#C8102E" stroke-width="5"/>
  <circle cx="100" cy="110" r="30" fill="none" stroke="#000000" stroke-width="5"/>
  <line x1="100" y1="80" x2="100" y2="65" stroke="#000000" stroke-width="4"/>
  <rect x="97" y="60" width="6" height="8" rx="1" fill="#000000"/>
  <line x1="115" y1="85" x2="128" y2="72" stroke="#000000" stroke-width="4"/>
  <line x1="130" y1="110" x2="145" y2="110" stroke="#000000" stroke-width="4"/>
  <line x1="115" y1="135" x2="128" y2="148" stroke="#000000" stroke-width="4"/>
  <line x1="85" y1="135" x2="72" y2="148" stroke="#000000" stroke-width="4"/>
  <line x1="70" y1="110" x2="55" y2="110" stroke="#000000" stroke-width="4"/>
  <line x1="85" y1="85" x2="72" y2="72" stroke="#000000" stroke-width="4"/>
  <polygon points="100,50 103,55 108,55 104,59 106,64 100,60 94,64 96,59 92,55 97,55" fill="#000000"/>
</svg>
