<svg xmlns="http://www.w3.org/2000/svg" viewBox="0 0 200 200">
  <polygon points="100,8 192,100 100,192 8,100" fill="white" stroke="#C8102E" stroke-width="5"/>
  <circle cx="100" cy="115" r="35" fill="none" stroke="#000000" stroke-width="6"/>
  <path d="M100,50 Q88,62 88,73 Q88,80 92,86 Q90,81 90,77 Q90,69 96,63 Q96,71 100,77 Q104,71 104,63 Q110,69 110,77 Q110,81 108,86 Q112,80 112,73 Q112,62 100,50 Z M100,77 Q94,85 94,92 Q94,102 100,108 Q106,102 106,92 Q106,85 100,77 Z" fill="#000000"/>
</svg>
