<svg xmlns="http://www.w3.org/2000/svg" viewBox="0 0 200 200">
  <polygon points="100,8 192,100 100,192 8,100" fill="white" stroke="#C8102E" stroke-width="5"/>
  <circle cx="100" cy="65" r="15" fill="#000000"/>
  <path d="M85,80 Q80,80 78,85 L75,110 Q75,115 80,115 L85,115 L85,145 Q85,150 90,150 L110,150 Q115,150 115,145 L115,115 L120,115 Q125,115 125,110 L122,85 Q120,80 115,80 Z" fill="#000000"/>
  <polygon points="100,90 105,100 115,100 107,106 110,116 100,110 90,116 93,106 85,100 95,100" fill="white"/>
</svg>
