<svg xmlns="http://www.w3.org/2000/svg" viewBox="0 0 200 200">
  <polygon points="100,8 192,100 100,192 8,100" fill="white" stroke="#C8102E" stroke-width="5"/>
  <ellipse cx="100" cy="75" rx="28" ry="32" fill="#000000"/>
  <ellipse cx="88" cy="70" rx="7" ry="10" fill="white"/>
  <ellipse cx="112" cy="70" rx="7" ry="10" fill="white"/>
  <polygon points="100,85 95,95 100,93 105,95" fill="white"/>
  <path d="M85,95 Q85,105 100,105 Q115,105 115,95" fill="white"/>
  <rect x="65" y="115" width="70" height="12" rx="6" fill="#000000" transform="rotate(-25 100 121)"/>
  <rect x="65" y="115" width="70" height="12" rx="6" fill="#000000" transform="rotate(25 100 121)"/>
  <circle cx="70" cy="125" r="8" fill="#000000"/>
  <circle cx="130" cy="125" r="8" fill="#000000"/>
  <circle cx="75" cy="140" r="8" fill="#000000"/>
  <circle cx="125" cy="140" r="8" fill="#000000"/>
</svg>
